<svg viewBox="0 0 32 33" fill="none" xmlns="http://www.w3.org/2000/svg">
    <path fill-rule="evenodd" clip-rule="evenodd" d="M16 21.3629C17.6016 21.3629 18.9 20.0645 18.9 18.4629C18.9 16.8613 17.6016 15.5629 16 15.5629C14.3984 15.5629 13.1 16.8613 13.1 18.4629C13.1 20.0645 14.3984 21.3629 16 21.3629ZM16 22.9629C18.4853 22.9629 20.5 20.9482 20.5 18.4629C20.5 15.9776 18.4853 13.9629 16 13.9629C13.5147 13.9629 11.5 15.9776 11.5 18.4629C11.5 20.9482 13.5147 22.9629 16 22.9629Z" fill="#1F1A1A"/>
    <path fill-rule="evenodd" clip-rule="evenodd" d="M19.8769 8.60708H11.896C11.6751 8.60708 11.496 8.78617 11.496 9.00708V11.635H20.2769V9.00708C20.2769 8.78617 20.0978 8.60708 19.8769 8.60708ZM11.896 7.00708C10.7914 7.00708 9.896 7.90251 9.896 9.00708V13.235H21.8769V9.00708C21.8769 7.90251 20.9814 7.00708 19.8769 7.00708H11.896Z" fill="#1F1A1A"/>
    <path fill-rule="evenodd" clip-rule="evenodd" d="M23.8473 13.1891H7.90283C7.68192 13.1891 7.50283 13.3682 7.50283 13.5891V23.5474H24.2473V13.5891C24.2473 13.3682 24.0682 13.1891 23.8473 13.1891ZM7.90283 11.5891C6.79826 11.5891 5.90283 12.4845 5.90283 13.5891V24.1474C5.90283 24.6997 6.35055 25.1474 6.90283 25.1474H24.8473C25.3996 25.1474 25.8473 24.6997 25.8473 24.1474V13.5891C25.8473 12.4845 24.9519 11.5891 23.8473 11.5891H7.90283Z" fill="#1F1A1A"/>
</svg>
